<?xml version="1.0" encoding="UTF-8"?>
<!-- Generator: https://ezgif.com/png-to-svg -->
<svg version="1.1" xmlns="http://www.w3.org/2000/svg" width="160" height="112">
<path d="M0,0 L1,0 L1,2 L0,2 L0,3 L-1,3 L-1,5 L1,5 L1,6 L3,6 L3,7 L4,7 L4,8 L6,8 L6,9 L7,9 L7,11 L8,11 L8,12 L11,12 L11,13 L12,13 L12,14 L13,14 L13,15 L14,15 L14,17 L13,17 L13,18 L15,18 L15,19 L16,19 L16,20 L17,20 L17,21 L18,21 L18,22 L19,22 L19,26 L20,26 L20,25 L22,25 L22,26 L23,26 L23,27 L24,27 L24,26 L26,26 L26,27 L27,27 L27,28 L28,28 L28,29 L29,29 L29,30 L30,30 L30,31 L31,31 L31,32 L32,32 L32,33 L34,33 L34,35 L35,35 L35,37 L36,37 L36,41 L37,41 L37,48 L36,48 L36,50 L34,50 L34,51 L33,51 L33,52 L31,52 L31,53 L26,53 L26,52 L25,52 L25,51 L24,51 L24,50 L23,50 L23,49 L22,49 L22,48 L21,48 L21,46 L20,46 L20,52 L19,52 L19,53 L17,53 L17,54 L18,54 L18,56 L17,56 L17,58 L16,58 L16,60 L15,60 L15,62 L14,62 L14,63 L13,63 L13,65 L12,65 L12,66 L11,66 L11,67 L10,67 L10,68 L9,68 L9,69 L8,69 L8,70 L6,70 L6,72 L5,72 L5,73 L4,73 L4,74 L3,74 L3,75 L0,75 L0,76 L-4,76 L-4,81 L-7,81 L-7,82 L-12,82 L-12,83 L-16,83 L-16,82 L-17,82 L-17,81 L-16,81 L-16,80 L-15,80 L-15,79 L-14,79 L-14,78 L-15,78 L-15,77 L-16,77 L-16,76 L-17,76 L-17,75 L-18,75 L-18,74 L-17,74 L-17,73 L-16,73 L-16,72 L-15,72 L-15,71 L-11,71 L-11,65 L-12,65 L-12,59 L-13,59 L-13,55 L-14,55 L-14,56 L-15,56 L-15,57 L-17,57 L-17,58 L-19,58 L-19,59 L-20,59 L-20,58 L-21,58 L-21,57 L-22,57 L-22,59 L-24,59 L-24,60 L-27,60 L-27,59 L-29,59 L-29,60 L-31,60 L-31,61 L-32,61 L-32,60 L-34,60 L-34,61 L-35,61 L-35,60 L-37,60 L-37,59 L-40,59 L-40,60 L-44,60 L-44,59 L-45,59 L-45,58 L-46,58 L-46,57 L-47,57 L-47,58 L-48,58 L-48,59 L-49,59 L-49,58 L-51,58 L-51,57 L-53,57 L-53,56 L-54,56 L-54,55 L-55,55 L-55,59 L-56,59 L-56,65 L-57,65 L-57,71 L-54,71 L-54,70 L-53,70 L-53,71 L-52,71 L-52,72 L-51,72 L-51,73 L-50,73 L-50,74 L-48,74 L-48,73 L-47,73 L-47,72 L-46,72 L-46,71 L-45,71 L-45,72 L-41,72 L-41,73 L-39,73 L-39,72 L-38,72 L-38,73 L-37,73 L-37,74 L-36,74 L-36,75 L-35,75 L-35,76 L-34,76 L-34,77 L-33,77 L-33,78 L-37,78 L-37,81 L-38,81 L-38,78 L-39,78 L-39,85 L-44,85 L-44,84 L-50,84 L-50,83 L-48,83 L-48,82 L-47,82 L-47,81 L-46,81 L-46,80 L-45,80 L-45,79 L-46,79 L-46,78 L-47,78 L-47,77 L-48,77 L-48,76 L-50,76 L-50,75 L-51,75 L-51,76 L-52,76 L-52,77 L-53,77 L-53,78 L-54,78 L-54,79 L-53,79 L-53,80 L-52,80 L-52,81 L-51,81 L-51,82 L-52,82 L-52,83 L-56,83 L-56,82 L-61,82 L-61,81 L-64,81 L-64,76 L-68,76 L-68,75 L-71,75 L-71,74 L-72,74 L-72,73 L-73,73 L-73,72 L-74,72 L-74,70 L-76,70 L-76,69 L-77,69 L-77,68 L-78,68 L-78,67 L-79,67 L-79,66 L-80,66 L-80,65 L-81,65 L-81,63 L-82,63 L-82,62 L-83,62 L-83,60 L-84,60 L-84,58 L-85,58 L-85,56 L-86,56 L-86,54 L-85,54 L-85,53 L-87,53 L-87,52 L-88,52 L-88,46 L-89,46 L-89,48 L-90,48 L-90,49 L-91,49 L-91,50 L-92,50 L-92,51 L-93,51 L-93,52 L-94,52 L-94,53 L-99,53 L-99,52 L-101,52 L-101,51 L-102,51 L-102,50 L-104,50 L-104,48 L-105,48 L-105,42 L-104,42 L-104,40 L-103,40 L-103,37 L-102,37 L-102,34 L-101,34 L-101,33 L-100,33 L-100,32 L-99,32 L-99,31 L-98,31 L-98,30 L-97,30 L-97,29 L-96,29 L-96,28 L-95,28 L-95,27 L-94,27 L-94,26 L-92,26 L-92,27 L-91,27 L-91,26 L-90,26 L-90,25 L-88,25 L-88,26 L-87,26 L-87,22 L-86,22 L-86,21 L-85,21 L-85,20 L-84,20 L-84,19 L-83,19 L-83,18 L-81,18 L-81,17 L-82,17 L-82,15 L-81,15 L-81,14 L-80,14 L-80,13 L-79,13 L-79,12 L-76,12 L-76,11 L-75,11 L-75,9 L-74,9 L-74,8 L-72,8 L-72,7 L-71,7 L-71,6 L-69,6 L-69,5 L-67,5 L-67,3 L-68,3 L-68,2 L-69,2 L-69,1 L-67,1 L-67,2 L-65,2 L-65,1 L-63,1 L-63,2 L-62,2 L-62,3 L-60,3 L-60,5 L-59,5 L-59,4 L-57,4 L-57,3 L-51,3 L-51,4 L-48,4 L-48,5 L-46,5 L-46,6 L-45,6 L-45,7 L-44,7 L-44,8 L-43,8 L-43,9 L-41,9 L-41,8 L-40,8 L-40,7 L-37,7 L-37,6 L-31,6 L-31,7 L-28,7 L-28,8 L-27,8 L-27,9 L-25,9 L-25,8 L-24,8 L-24,7 L-23,7 L-23,6 L-22,6 L-22,5 L-20,5 L-20,4 L-17,4 L-17,3 L-11,3 L-11,4 L-9,4 L-9,5 L-8,5 L-8,4 L-7,4 L-7,6 L-6,6 L-6,7 L-5,7 L-5,6 L-4,6 L-4,5 L-5,5 L-5,4 L-6,4 L-6,3 L-5,3 L-5,2 L-4,2 L-4,1 L-3,1 L-3,2 L-1,2 L-1,1 L0,1 Z M-63,4 L-63,5 L-64,5 L-64,6 L-63,6 L-63,7 L-62,7 L-62,6 L-61,6 L-61,4 Z M-51,8 L-51,9 L-50,9 L-50,8 Z M-18,8 L-18,9 L-17,9 L-17,8 Z M-50,9 L-50,10 L-49,10 L-49,11 L-48,11 L-48,12 L-47,12 L-47,10 L-48,10 L-48,9 Z M-20,9 L-20,10 L-21,10 L-21,12 L-20,12 L-20,11 L-19,11 L-19,10 L-18,10 L-18,9 Z M-65,9 L-65,10 L-69,10 L-69,11 L-71,11 L-71,12 L-72,12 L-72,13 L-73,13 L-73,14 L-74,14 L-74,15 L-75,15 L-75,16 L-76,16 L-76,17 L-77,17 L-77,19 L-78,19 L-78,21 L-79,21 L-79,24 L-80,24 L-80,26 L-81,26 L-81,32 L-80,32 L-80,34 L-79,34 L-79,36 L-78,36 L-78,37 L-79,37 L-79,38 L-81,38 L-81,39 L-82,39 L-82,40 L-80,40 L-80,39 L-78,39 L-78,38 L-76,38 L-76,37 L-73,37 L-73,36 L-74,36 L-74,30 L-73,30 L-73,31 L-71,31 L-71,29 L-72,29 L-72,28 L-73,28 L-73,29 L-74,29 L-74,24 L-73,24 L-73,21 L-72,21 L-72,23 L-71,23 L-71,22 L-70,22 L-70,24 L-72,24 L-72,25 L-71,25 L-71,27 L-70,27 L-70,26 L-69,26 L-69,25 L-68,25 L-68,24 L-67,24 L-67,23 L-65,23 L-65,24 L-63,24 L-63,25 L-60,25 L-60,26 L-56,26 L-56,25 L-54,25 L-54,24 L-53,24 L-53,23 L-52,23 L-52,22 L-51,22 L-51,21 L-50,21 L-50,20 L-49,20 L-49,19 L-48,19 L-48,17 L-49,17 L-49,16 L-50,16 L-50,15 L-51,15 L-51,14 L-52,14 L-52,13 L-53,13 L-53,12 L-54,12 L-54,11 L-55,11 L-55,10 L-60,10 L-60,12 L-62,12 L-62,11 L-63,11 L-63,9 Z M-5,9 L-5,11 L-6,11 L-6,12 L-8,12 L-8,10 L-13,10 L-13,11 L-14,11 L-14,12 L-15,12 L-15,13 L-16,13 L-16,14 L-17,14 L-17,15 L-18,15 L-18,16 L-19,16 L-19,17 L-20,17 L-20,19 L-19,19 L-19,20 L-18,20 L-18,21 L-17,21 L-17,22 L-16,22 L-16,23 L-15,23 L-15,24 L-14,24 L-14,25 L-12,25 L-12,26 L-8,26 L-8,25 L-5,25 L-5,24 L-3,24 L-3,23 L-1,23 L-1,24 L0,24 L0,25 L1,25 L1,26 L2,26 L2,27 L3,27 L3,25 L4,25 L4,24 L2,24 L2,22 L3,22 L3,23 L4,23 L4,21 L5,21 L5,24 L6,24 L6,29 L5,29 L5,28 L4,28 L4,29 L3,29 L3,31 L5,31 L5,30 L6,30 L6,36 L5,36 L5,37 L8,37 L8,38 L10,38 L10,39 L12,39 L12,40 L14,40 L14,39 L13,39 L13,38 L11,38 L11,37 L10,37 L10,36 L11,36 L11,34 L12,34 L12,32 L13,32 L13,26 L12,26 L12,24 L11,24 L11,21 L10,21 L10,19 L9,19 L9,17 L8,17 L8,16 L7,16 L7,15 L6,15 L6,14 L5,14 L5,13 L4,13 L4,12 L3,12 L3,11 L1,11 L1,10 L-3,10 L-3,9 Z M-73,25 L-73,27 L-72,27 L-72,25 Z M-42,25 L-42,28 L-41,28 L-41,27 L-40,27 L-40,25 Z M-28,25 L-28,27 L-27,27 L-27,28 L-26,28 L-26,25 Z M4,25 L4,27 L5,27 L5,25 Z M-93,27 L-93,28 L-92,28 L-92,27 Z M24,27 L24,28 L25,28 L25,27 Z M-94,28 L-94,29 L-93,29 L-93,28 Z M25,28 L25,29 L26,29 L26,28 Z M-95,30 L-95,31 L-94,31 L-94,30 Z M-70,30 L-70,31 L-69,31 L-69,32 L-66,32 L-66,31 L-67,31 L-67,30 Z M-1,30 L-1,31 L-2,31 L-2,32 L1,32 L1,31 L2,31 L2,30 Z M26,30 L26,31 L27,31 L27,30 Z M-71,31 L-71,32 L-70,32 L-70,31 Z M-61,31 L-61,32 L-60,32 L-60,31 Z M-8,31 L-8,32 L-7,32 L-7,31 Z M2,31 L2,32 L3,32 L3,31 Z M-73,32 L-73,36 L-71,36 L-71,33 L-72,33 L-72,32 Z M-66,32 L-66,33 L-65,33 L-65,32 Z M-60,32 L-60,33 L-58,33 L-58,32 Z M-35,32 L-35,34 L-36,34 L-36,35 L-38,35 L-38,36 L-30,36 L-30,35 L-32,35 L-32,34 L-33,34 L-33,32 Z M-10,32 L-10,33 L-8,33 L-8,32 Z M-3,32 L-3,33 L-2,33 L-2,32 Z M4,32 L4,33 L3,33 L3,36 L5,36 L5,32 Z M-65,33 L-65,34 L-63,34 L-63,33 Z M-5,33 L-5,34 L-3,34 L-3,33 Z M-70,34 L-70,35 L-69,35 L-69,34 Z M-63,34 L-63,35 L-60,35 L-60,34 Z M-8,34 L-8,35 L-5,35 L-5,34 Z M1,34 L1,35 L2,35 L2,34 Z M-69,35 L-69,36 L-67,36 L-67,35 Z M-60,35 L-60,36 L-56,36 L-56,35 Z M-12,35 L-12,36 L-8,36 L-8,35 Z M-1,35 L-1,36 L1,36 L1,35 Z M-67,36 L-67,37 L-66,37 L-66,38 L-65,38 L-65,39 L-63,39 L-63,40 L-61,40 L-61,42 L-58,42 L-58,43 L-57,43 L-57,41 L-54,41 L-54,40 L-58,40 L-58,39 L-61,39 L-61,38 L-63,38 L-63,37 L-65,37 L-65,36 Z M-56,36 L-56,37 L-52,37 L-52,36 Z M-16,36 L-16,37 L-12,37 L-12,36 Z M-3,36 L-3,37 L-5,37 L-5,38 L-7,38 L-7,39 L-10,39 L-10,40 L-14,40 L-14,41 L-11,41 L-11,43 L-10,43 L-10,42 L-7,42 L-7,40 L-5,40 L-5,39 L-3,39 L-3,38 L-2,38 L-2,37 L-1,37 L-1,36 Z M-72,37 L-72,39 L-71,39 L-71,40 L-69,40 L-69,38 L-70,38 L-70,37 Z M-52,37 L-52,38 L-47,38 L-47,37 Z M-21,37 L-21,38 L-16,38 L-16,37 Z M2,37 L2,38 L1,38 L1,40 L3,40 L3,39 L4,39 L4,37 Z M-37,37 L-37,38 L-47,38 L-47,39 L-21,39 L-21,38 L-31,38 L-31,37 Z M-87,39 L-87,43 L-88,43 L-88,46 L-87,46 L-87,45 L-86,45 L-86,44 L-85,44 L-85,43 L-84,43 L-84,42 L-85,42 L-85,40 L-86,40 L-86,39 Z M18,39 L18,40 L17,40 L17,42 L16,42 L16,43 L17,43 L17,44 L18,44 L18,45 L19,45 L19,46 L20,46 L20,43 L19,43 L19,39 Z M-83,40 L-83,41 L-82,41 L-82,40 Z M14,40 L14,41 L15,41 L15,40 Z M-68,41 L-68,42 L-69,42 L-69,43 L-68,43 L-68,44 L-66,44 L-66,43 L-65,43 L-65,42 L-66,42 L-66,41 Z M-54,41 L-54,42 L-47,42 L-47,41 Z M-21,41 L-21,42 L-14,42 L-14,41 Z M-2,41 L-2,42 L-3,42 L-3,43 L-2,43 L-2,44 L0,44 L0,43 L1,43 L1,42 L0,42 L0,41 Z M-78,42 L-78,43 L-79,43 L-79,44 L-77,44 L-77,43 L-76,43 L-76,42 Z M8,42 L8,43 L9,43 L9,44 L11,44 L11,43 L10,43 L10,42 Z M-99,45 L-99,46 L-98,46 L-98,47 L-97,47 L-97,45 Z M-65,45 L-65,48 L-64,48 L-64,49 L-63,49 L-63,50 L-62,50 L-62,49 L-61,49 L-61,48 L-60,48 L-60,47 L-61,47 L-61,46 L-62,46 L-62,45 Z M-6,45 L-6,47 L-4,47 L-4,48 L-3,48 L-3,47 L-2,47 L-2,46 L-3,46 L-3,45 Z M29,45 L29,47 L30,47 L30,46 L31,46 L31,45 Z M-10,47 L-10,48 L-11,48 L-11,49 L-9,49 L-9,50 L-8,50 L-8,51 L-6,51 L-6,50 L-5,50 L-5,49 L-6,49 L-6,48 L-8,48 L-8,47 Z M-68,48 L-68,49 L-69,49 L-69,51 L-70,51 L-70,52 L-74,52 L-74,53 L-73,53 L-73,54 L-72,54 L-72,56 L-71,56 L-71,59 L-70,59 L-70,61 L-69,61 L-69,63 L-68,63 L-68,66 L-67,66 L-67,64 L-65,64 L-65,63 L-61,63 L-61,59 L-60,59 L-60,55 L-62,55 L-62,54 L-64,54 L-64,53 L-66,53 L-66,52 L-67,52 L-67,49 L-66,49 L-66,48 Z M-58,48 L-58,49 L-59,49 L-59,51 L-58,51 L-58,52 L-59,52 L-59,53 L-56,53 L-56,51 L-57,51 L-57,50 L-56,50 L-56,48 Z M-2,48 L-2,49 L-1,49 L-1,52 L-2,52 L-2,53 L-3,53 L-3,55 L-4,55 L-4,54 L-6,54 L-6,55 L-8,55 L-8,59 L-7,59 L-7,63 L-3,63 L-3,64 L-1,64 L-1,66 L0,66 L0,63 L1,63 L1,61 L2,61 L2,59 L3,59 L3,56 L4,56 L4,54 L5,54 L5,53 L6,53 L6,52 L2,52 L2,51 L1,51 L1,49 L0,49 L0,48 Z M-15,49 L-15,50 L-14,50 L-14,51 L-16,51 L-16,52 L-13,52 L-13,53 L-14,53 L-14,54 L-12,54 L-12,53 L-11,53 L-11,50 L-13,50 L-13,49 Z M-53,50 L-53,51 L-51,51 L-51,50 Z M-51,51 L-51,52 L-53,52 L-53,53 L-52,53 L-52,54 L-51,54 L-51,55 L-52,55 L-52,56 L-48,56 L-48,55 L-49,55 L-49,54 L-48,54 L-48,53 L-50,53 L-50,52 L-49,52 L-49,51 Z M-44,52 L-44,53 L-45,53 L-45,54 L-44,54 L-44,55 L-45,55 L-45,56 L-43,56 L-43,57 L-44,57 L-44,58 L-42,58 L-42,59 L-41,59 L-41,58 L-40,58 L-40,57 L-41,57 L-41,56 L-40,56 L-40,55 L-42,55 L-42,54 L-41,54 L-41,53 L-43,53 L-43,52 Z M-21,51 L-21,52 L-23,52 L-23,53 L-20,53 L-20,54 L-21,54 L-21,55 L-19,55 L-19,56 L-20,56 L-20,57 L-17,57 L-17,55 L-16,55 L-16,54 L-18,54 L-18,52 L-20,52 L-20,51 Z M-30,53 L-30,54 L-29,54 L-29,55 L-30,55 L-30,56 L-27,56 L-27,57 L-28,57 L-28,58 L-25,58 L-25,57 L-26,57 L-26,56 L-24,56 L-24,55 L-28,55 L-28,54 L-26,54 L-26,53 Z M-37,54 L-37,55 L-38,55 L-38,56 L-37,56 L-37,57 L-35,57 L-35,58 L-36,58 L-36,59 L-33,59 L-33,58 L-31,58 L-31,56 L-34,56 L-34,55 L-33,55 L-33,54 Z M-79,56 L-79,57 L-78,57 L-78,58 L-77,58 L-77,56 Z M9,56 L9,58 L10,58 L10,57 L11,57 L11,56 Z M-77,58 L-77,59 L-76,59 L-76,58 Z M8,58 L8,59 L9,59 L9,58 Z M-63,65 L-63,66 L-62,66 L-62,65 Z M-6,65 L-6,66 L-5,66 L-5,65 Z M-68,72 L-68,73 L-66,73 L-66,72 Z M-61,72 L-61,73 L-60,73 L-60,72 Z M-58,72 L-58,73 L-57,73 L-57,72 Z M-55,72 L-55,74 L-54,74 L-54,72 Z M-14,72 L-14,74 L-13,74 L-13,72 Z M-11,72 L-11,73 L-10,73 L-10,72 Z M-8,72 L-8,73 L-7,73 L-7,72 Z M-2,72 L-2,73 L0,73 L0,72 Z M-66,73 L-66,74 L-64,74 L-64,73 Z M-4,73 L-4,74 L-2,74 L-2,73 Z M-46,74 L-46,75 L-45,75 L-45,74 Z M-42,74 L-42,75 L-41,75 L-41,74 Z " fill="#FFFFFF" transform="translate(114,26)"/>
<path d="M0,0 L6,0 L6,1 L9,1 L9,2 L11,2 L11,3 L12,3 L12,4 L13,4 L13,5 L14,5 L14,6 L15,6 L15,8 L16,8 L16,11 L17,11 L17,15 L16,15 L16,13 L15,13 L15,14 L14,14 L14,15 L13,15 L13,16 L12,16 L12,12 L11,12 L11,9 L10,9 L10,8 L9,8 L9,7 L8,7 L8,6 L6,6 L6,5 L2,5 L2,6 L0,6 L0,7 L-1,7 L-1,9 L-2,9 L-2,11 L-3,11 L-3,13 L-4,13 L-4,14 L-5,14 L-5,16 L-6,16 L-6,17 L-8,17 L-8,18 L-7,18 L-7,19 L-9,19 L-9,18 L-11,18 L-11,20 L-9,20 L-9,21 L-13,21 L-13,20 L-14,20 L-14,19 L-13,19 L-13,17 L-12,17 L-12,14 L-11,14 L-11,12 L-12,12 L-12,10 L-10,10 L-10,11 L-9,11 L-9,10 L-8,10 L-8,9 L-7,9 L-7,7 L-6,7 L-6,6 L-5,6 L-5,4 L-4,4 L-4,3 L-3,3 L-3,2 L-2,2 L-2,1 L0,1 Z M1,1 L1,2 L3,2 L3,3 L5,3 L5,1 Z M-2,3 L-2,4 L-3,4 L-3,5 L-2,5 L-2,6 L-1,6 L-1,5 L0,5 L0,3 Z M8,3 L8,5 L9,5 L9,6 L10,6 L10,3 Z M12,6 L12,7 L11,7 L11,9 L12,9 L12,8 L13,8 L13,6 Z M-4,6 L-4,7 L-6,7 L-6,9 L-3,9 L-3,8 L-2,8 L-2,7 L-3,7 L-3,6 Z M14,9 L14,10 L13,10 L13,12 L14,12 L14,11 L15,11 L15,9 Z M-7,10 L-7,12 L-4,12 L-4,10 Z M-8,14 L-8,15 L-7,15 L-7,14 Z M11,16 L12,16 L12,17 L11,17 Z M10,17 L11,17 L11,18 L10,18 Z M8,18 L10,18 L10,19 L8,19 Z " fill="#FFFFFF" transform="translate(98,11)"/>
<path d="M0,0 L6,0 L6,1 L8,1 L8,2 L9,2 L9,3 L10,3 L10,4 L11,4 L11,6 L12,6 L12,7 L13,7 L13,9 L14,9 L14,10 L15,10 L15,11 L16,11 L16,10 L18,10 L18,12 L17,12 L17,14 L18,14 L18,17 L20,17 L20,18 L19,18 L19,19 L20,19 L20,20 L19,20 L19,21 L15,21 L15,20 L17,20 L17,18 L15,18 L15,19 L13,19 L13,18 L14,18 L14,17 L12,17 L12,16 L11,16 L11,14 L10,14 L10,13 L9,13 L9,11 L8,11 L8,9 L7,9 L7,7 L6,7 L6,6 L4,6 L4,5 L0,5 L0,6 L-2,6 L-2,7 L-3,7 L-3,8 L-4,8 L-4,9 L-5,9 L-5,12 L-6,12 L-6,16 L-7,16 L-7,15 L-8,15 L-8,14 L-9,14 L-9,13 L-10,13 L-10,16 L-11,16 L-11,11 L-10,11 L-10,8 L-9,8 L-9,6 L-8,6 L-8,5 L-7,5 L-7,4 L-6,4 L-6,3 L-5,3 L-5,2 L-3,2 L-3,1 L0,1 Z M1,1 L1,3 L3,3 L3,2 L5,2 L5,1 Z M-4,3 L-4,6 L-3,6 L-3,5 L-2,5 L-2,3 Z M6,3 L6,5 L7,5 L7,6 L8,6 L8,5 L9,5 L9,4 L8,4 L8,3 Z M-7,6 L-7,8 L-6,8 L-6,9 L-5,9 L-5,7 L-6,7 L-6,6 Z M9,6 L9,7 L8,7 L8,8 L9,8 L9,9 L12,9 L12,7 L10,7 L10,6 Z M-9,9 L-9,11 L-8,11 L-8,12 L-7,12 L-7,10 L-8,10 L-8,9 Z M10,10 L10,12 L13,12 L13,10 Z M13,14 L13,15 L14,15 L14,14 Z " fill="#FFFFFF" transform="translate(56,11)"/>
<path d="M0,0 L1,0 L1,4 L2,4 L2,8 L4,8 L4,4 L5,4 L5,0 L6,0 L6,3 L7,3 L7,4 L8,4 L8,3 L9,3 L9,5 L8,5 L8,11 L9,11 L9,12 L8,12 L8,13 L7,13 L7,15 L9,15 L9,16 L6,16 L6,17 L5,17 L5,18 L8,18 L8,19 L5,19 L5,20 L7,20 L7,21 L-1,21 L-1,20 L1,20 L1,19 L-1,19 L-1,18 L1,18 L1,17 L0,17 L0,16 L-3,16 L-3,15 L-1,15 L-1,13 L-2,13 L-2,12 L-3,12 L-3,11 L-2,11 L-2,5 L-3,5 L-3,3 L-2,3 L-2,4 L-1,4 L-1,3 L0,3 Z M-1,6 L-1,9 L0,9 L0,8 L1,8 L1,6 Z M5,6 L5,8 L6,8 L6,9 L7,9 L7,6 Z M0,10 L0,12 L1,12 L1,11 L2,11 L2,10 Z M4,10 L4,11 L5,11 L5,12 L6,12 L6,10 Z " fill="#FFFFFF" transform="translate(77,10)"/>
<path d="M0,0 L1,0 L1,1 L0,1 Z M-1,1 L0,1 L0,2 L-1,2 Z M-8,1 L-7,1 L-7,2 L-6,2 L-6,3 L-5,3 L-5,4 L-3,4 L-3,6 L-5,6 L-5,7 L-6,7 L-6,8 L-7,8 L-7,9 L-8,9 L-8,10 L-7,10 L-7,11 L-6,11 L-6,12 L-5,12 L-5,13 L-3,13 L-3,14 L-9,14 L-9,15 L-14,15 L-14,8 L-17,8 L-17,7 L-15,7 L-15,5 L-14,5 L-14,3 L-12,3 L-12,2 L-8,2 Z M-12,4 L-12,5 L-11,5 L-11,4 Z M-8,4 L-8,5 L-7,5 L-7,4 Z M-2,2 L-1,2 L-1,3 L-2,3 Z M-3,3 L-2,3 L-2,4 L-3,4 Z " fill="#FFFFFF" transform="translate(99,96)"/>
<path d="M0,0 L3,0 L3,3 L2,3 L2,5 L0,5 L0,6 L-6,6 L-6,5 L-7,5 L-7,2 L-2,2 L-2,1 L0,1 Z " fill="#FFFFFF" transform="translate(106,44)"/>
<path d="M0,0 L3,0 L3,1 L5,1 L5,2 L10,2 L10,5 L9,5 L9,6 L3,6 L3,5 L1,5 L1,3 L0,3 Z " fill="#FFFFFF" transform="translate(51,44)"/>
<path d="M0,0 L4,0 L4,1 L5,1 L5,2 L6,2 L6,4 L3,4 L3,5 L0,5 L0,6 L-2,6 L-2,7 L-4,7 L-4,4 L-3,4 L-3,2 L-2,2 L-2,1 L0,1 Z " fill="#FFFFFF" transform="translate(102,38)"/>
<path d="M0,0 L4,0 L4,1 L6,1 L6,2 L7,2 L7,4 L8,4 L8,7 L6,7 L6,6 L4,6 L4,5 L1,5 L1,4 L-2,4 L-2,2 L-1,2 L-1,1 L0,1 Z " fill="#FFFFFF" transform="translate(54,38)"/>
<path d="M0,0 L1,0 L1,1 L2,1 L2,2 L4,2 L4,3 L5,3 L5,4 L6,4 L6,5 L7,5 L7,6 L8,6 L8,8 L9,8 L9,9 L7,9 L7,10 L6,10 L6,9 L4,9 L4,7 L2,7 L2,5 L1,5 L1,3 L0,3 Z M2,3 L2,4 L3,4 L3,3 Z M3,4 L3,5 L5,5 L5,4 Z M5,6 L5,7 L6,7 L6,6 Z M6,7 L6,8 L7,8 L7,7 Z " fill="#FFFFFF" transform="translate(109,38)"/>
<path d="M0,0 L1,0 L1,3 L0,3 L0,5 L-1,5 L-1,7 L-3,7 L-3,9 L-5,9 L-5,10 L-6,10 L-6,9 L-8,9 L-8,8 L-7,8 L-7,6 L-6,6 L-6,5 L-5,5 L-5,4 L-4,4 L-4,3 L-3,3 L-3,2 L-1,2 L-1,1 L0,1 Z M-2,3 L-2,4 L-1,4 L-1,3 Z M-4,4 L-4,5 L-2,5 L-2,4 Z M-5,6 L-5,7 L-4,7 L-4,6 Z M-6,7 L-6,8 L-5,8 L-5,7 Z " fill="#FFFFFF" transform="translate(50,38)"/>
<path d="M0,0 L1,0 L1,1 L2,1 L2,2 L3,2 L3,3 L4,3 L4,5 L3,5 L3,8 L2,8 L2,11 L1,11 L1,10 L0,10 L0,9 L-2,9 L-2,5 L-1,5 L-1,2 L0,2 Z M0,4 L0,7 L1,7 L1,8 L2,8 L2,4 Z " fill="#FFFFFF" transform="translate(85,1)"/>
<path d="M0,0 L1,0 L1,2 L2,2 L2,5 L3,5 L3,9 L1,9 L1,10 L0,10 L0,11 L-1,11 L-1,8 L-2,8 L-2,5 L-3,5 L-3,3 L-2,3 L-2,2 L-1,2 L-1,1 L0,1 Z M-1,4 L-1,8 L0,8 L0,7 L1,7 L1,4 Z " fill="#FFFFFF" transform="translate(74,1)"/>
<path d="M0,0 L2,0 L2,1 L3,1 L3,3 L4,3 L4,7 L2,7 L2,5 L1,5 L1,3 L0,3 Z " fill="#FFFFFF" transform="translate(119,44)"/>
<path d="M0,0 L2,0 L2,3 L1,3 L1,5 L0,5 L0,7 L-2,7 L-2,3 L-1,3 L-1,1 L0,1 Z " fill="#FFFFFF" transform="translate(39,44)"/>
<path d="M0,0 L1,0 L1,1 L2,1 L2,2 L3,2 L3,3 L0,3 Z " fill="#FFFFFF" transform="translate(76,108)"/>
<path d="M0,0 L1,0 L1,2 L0,2 L0,3 L-1,3 L-1,2 L-2,2 L-2,1 L0,1 Z " fill="#FFFFFF" transform="translate(81,92)"/>
<path d="M0,0 L1,0 L1,1 L3,1 L3,2 L2,2 L2,3 L1,3 L1,2 L0,2 Z " fill="#FFFFFF" transform="translate(63,90)"/>
<path d="M0,0 L1,0 L1,2 L0,2 L0,3 L-1,3 L-1,2 L-2,2 L-2,1 L0,1 Z " fill="#FFFFFF" transform="translate(96,90)"/>
<path d="M0,0 L3,0 L3,1 L2,1 L2,2 L1,2 L1,1 L0,1 Z " fill="#FFFFFF" transform="translate(121,34)"/>
<path d="M0,0 L2,0 L2,2 L1,2 L1,1 L0,1 Z " fill="#FFFFFF" transform="translate(125,37)"/>
<path d="M0,0 L1,0 L1,3 L0,3 Z " fill="#FFFFFF" transform="translate(89,1)"/>
<path d="M0,0 L1,0 L1,3 L0,3 Z " fill="#FFFFFF" transform="translate(70,1)"/>
<path d="M0,0 L1,0 L1,2 L0,2 Z " fill="#FFFFFF" transform="translate(83,109)"/>
<path d="M0,0 L2,0 L2,1 L0,1 Z " fill="#FFFFFF" transform="translate(134,48)"/>
<path d="M0,0 L1,0 L1,1 L0,1 Z " fill="#FFFFFF" transform="translate(79,111)"/>
<path d="M0,0 L1,0 L1,1 L0,1 Z " fill="#FFFFFF" transform="translate(96,108)"/>
<path d="M0,0 L1,0 L1,1 L0,1 Z " fill="#FFFFFF" transform="translate(63,108)"/>
<path d="M0,0 L1,0 L1,1 L0,1 Z " fill="#FFFFFF" transform="translate(81,102)"/>
<path d="M0,0 L1,0 L1,1 L0,1 Z " fill="#FFFFFF" transform="translate(78,92)"/>
<path d="M0,0 L1,0 L1,1 L0,1 Z " fill="#FFFFFF" transform="translate(82,91)"/>
<path d="M0,0 L1,0 L1,1 L0,1 Z " fill="#FFFFFF" transform="translate(77,91)"/>
<path d="M0,0 L1,0 L1,1 L0,1 Z " fill="#FFFFFF" transform="translate(93,90)"/>
<path d="M0,0 L1,0 L1,1 L0,1 Z " fill="#FFFFFF" transform="translate(83,90)"/>
<path d="M0,0 L1,0 L1,1 L0,1 Z " fill="#FFFFFF" transform="translate(76,90)"/>
<path d="M0,0 L1,0 L1,1 L0,1 Z " fill="#FFFFFF" transform="translate(66,90)"/>
<path d="M0,0 L1,0 L1,1 L0,1 Z " fill="#FFFFFF" transform="translate(97,89)"/>
<path d="M0,0 L1,0 L1,1 L0,1 Z " fill="#FFFFFF" transform="translate(92,89)"/>
<path d="M0,0 L1,0 L1,1 L0,1 Z " fill="#FFFFFF" transform="translate(84,89)"/>
<path d="M0,0 L1,0 L1,1 L0,1 Z " fill="#FFFFFF" transform="translate(67,89)"/>
<path d="M0,0 L1,0 L1,1 L0,1 Z " fill="#FFFFFF" transform="translate(62,89)"/>
<path d="M0,0 L1,0 L1,1 L0,1 Z " fill="#FFFFFF" transform="translate(98,88)"/>
<path d="M0,0 L1,0 L1,1 L0,1 Z " fill="#FFFFFF" transform="translate(91,88)"/>
<path d="M0,0 L1,0 L1,1 L0,1 Z " fill="#FFFFFF" transform="translate(68,88)"/>
<path d="M0,0 L1,0 L1,1 L0,1 Z " fill="#FFFFFF" transform="translate(61,88)"/>
<path d="M0,0 L1,0 L1,1 L0,1 Z " fill="#FFFFFF" transform="translate(99,87)"/>
<path d="M0,0 L1,0 L1,1 L0,1 Z " fill="#FFFFFF" transform="translate(60,87)"/>
<path d="M0,0 L1,0 L1,1 L0,1 Z " fill="#FFFFFF" transform="translate(97,84)"/>
<path d="M0,0 L1,0 L1,1 L0,1 Z " fill="#FFFFFF" transform="translate(62,84)"/>
<path d="M0,0 L1,0 L1,1 L0,1 Z " fill="#FFFFFF" transform="translate(116,80)"/>
<path d="M0,0 L1,0 L1,1 L0,1 Z " fill="#FFFFFF" transform="translate(114,80)"/>
<path d="M0,0 L1,0 L1,1 L0,1 Z " fill="#FFFFFF" transform="translate(112,80)"/>
<path d="M0,0 L1,0 L1,1 L0,1 Z " fill="#FFFFFF" transform="translate(49,80)"/>
<path d="M0,0 L1,0 L1,1 L0,1 Z " fill="#FFFFFF" transform="translate(47,80)"/>
<path d="M0,0 L1,0 L1,1 L0,1 Z " fill="#FFFFFF" transform="translate(45,80)"/>
<path d="M0,0 L1,0 L1,1 L0,1 Z " fill="#FFFFFF" transform="translate(43,80)"/>
<path d="M0,0 L1,0 L1,1 L0,1 Z " fill="#FFFFFF" transform="translate(144,55)"/>
<path d="M0,0 L1,0 L1,1 L0,1 Z " fill="#FFFFFF" transform="translate(133,47)"/>
<path d="M0,0 L1,0 L1,1 L0,1 Z " fill="#FFFFFF" transform="translate(131,44)"/>
<path d="M0,0 L1,0 L1,1 L0,1 Z " fill="#FFFFFF" transform="translate(105,43)"/>
<path d="M0,0 L1,0 L1,1 L0,1 Z " fill="#FFFFFF" transform="translate(54,43)"/>
<path d="M0,0 L1,0 L1,1 L0,1 Z " fill="#FFFFFF" transform="translate(129,42)"/>
<path d="M0,0 L1,0 L1,1 L0,1 Z " fill="#FFFFFF" transform="translate(33,38)"/>
<path d="M0,0 L1,0 L1,1 L0,1 Z " fill="#FFFFFF" transform="translate(34,37)"/>
<path d="M0,0 L1,0 L1,1 L0,1 Z " fill="#FFFFFF" transform="translate(90,31)"/>
<path d="M0,0 L1,0 L1,1 L0,1 Z " fill="#FFFFFF" transform="translate(69,31)"/>
<path d="M0,0 L1,0 L1,1 L0,1 Z " fill="#FFFFFF" transform="translate(91,30)"/>
<path d="M0,0 L1,0 L1,1 L0,1 Z " fill="#FFFFFF" transform="translate(68,30)"/>
<path d="M0,0 L1,0 L1,1 L0,1 Z " fill="#FFFFFF" transform="translate(88,0)"/>
<path d="M0,0 L1,0 L1,1 L0,1 Z " fill="#FFFFFF" transform="translate(86,0)"/>
<path d="M0,0 L1,0 L1,1 L0,1 Z " fill="#FFFFFF" transform="translate(73,0)"/>
<path d="M0,0 L1,0 L1,1 L0,1 Z " fill="#FFFFFF" transform="translate(71,0)"/>
</svg>
